<?xml version="1.0" standalone="no"?>
<!DOCTYPE svg PUBLIC "-//W3C//DTD SVG 20010904//EN"
 "http://www.w3.org/TR/2001/REC-SVG-20010904/DTD/svg10.dtd">
<svg version="1.0" xmlns="http://www.w3.org/2000/svg"
 width="100px" height="100px" viewBox="0 0 1024.000000 1024.000000"
 preserveAspectRatio="xMidYMid meet">

<g transform="translate(0.000000,1024.000000) scale(0.100000,-0.100000)"
fill="black" stroke="none">
<path d="M0 5120 l0 -5120 5120 0 5120 0 0 5120 0 5120 -5120 0 -5120 0 0
-5120z m2473 3678 c14 -16 18 -35 15 -67 -3 -43 -3 -45 47 -77 66 -42 640
-360 820 -454 77 -41 143 -79 147 -84 4 -6 8 -86 8 -178 0 -93 2 -168 5 -168
8 0 45 39 45 48 1 19 154 164 223 211 97 65 180 111 201 111 9 0 16 3 16 8 0
4 35 18 78 30 42 13 86 28 96 34 11 6 68 12 127 14 76 2 118 8 141 20 45 22
420 238 598 343 80 47 148 87 152 89 7 3 319 -175 618 -353 110 -65 1050 -619
1253 -737 64 -38 117 -73 117 -78 0 -15 -141 -92 -161 -87 -10 3 -200 113
-421 245 -930 553 -1181 702 -1184 702 -2 0 -4 -26 -4 -57 l0 -58 663 -398
c651 -391 828 -502 834 -522 2 -5 -18 -22 -45 -37 -46 -26 -48 -26 -72 -9 -60
43 -1524 920 -1573 942 -25 11 -36 5 -742 -426 -115 -71 -311 -188 -435 -260
-124 -73 -278 -164 -342 -203 l-117 -71 -46 25 c-25 14 -45 29 -45 32 1 23 58
62 295 205 225 134 215 124 125 133 -41 4 -79 7 -84 5 -5 -1 -93 -50 -195
-108 -102 -58 -205 -116 -228 -129 l-42 -24 -68 41 c-37 22 -73 47 -79 55 -10
13 -37 0 -170 -79 -88 -51 -231 -138 -319 -194 -88 -55 -212 -130 -276 -167
l-117 -66 -7 -413 c-4 -226 -5 -475 -3 -552 l3 -140 -129 0 -129 0 -21 28
c-12 16 -86 111 -166 210 l-145 182 -80 1 c-74 1 -82 0 -116 -28 -93 -75 -224
-5 -206 110 7 42 54 91 90 93 74 4 121 -18 144 -66 l17 -35 353 0 353 0 0 313
0 312 70 44 c39 23 70 46 70 49 0 4 -37 28 -83 53 -45 26 -226 128 -402 226
-176 99 -426 242 -555 318 -386 226 -351 209 -386 196 -42 -15 -71 -14 -104 6
-35 20 -50 52 -50 102 0 71 74 116 141 88 43 -18 61 -39 64 -78 1 -17 8 -36
16 -44 17 -16 516 -305 804 -465 491 -273 581 -324 600 -336 11 -8 29 -14 40
-14 22 1 607 352 613 368 1 5 -61 47 -140 93 -308 178 -394 229 -703 412 -311
184 -357 212 -534 324 -68 43 -92 53 -127 53 -34 0 -47 5 -63 26 -47 60 -10
144 64 144 50 0 85 -36 85 -87 l1 -38 227 -135 c483 -285 1186 -695 1271 -740
13 -6 21 -8 18 -3 -4 5 9 17 28 26 19 9 35 21 35 27 0 5 9 10 20 10 11 0 20 5
20 10 0 6 7 10 16 10 8 0 13 4 10 9 -7 10 -265 156 -596 336 -129 70 -241 132
-247 138 -9 6 -13 38 -13 93 l0 83 -157 89 c-87 49 -205 115 -263 147 -58 32
-106 59 -108 61 -2 1 2 12 8 24 11 21 12 20 98 -25 48 -26 171 -94 274 -153
l187 -106 3 -96 3 -95 140 -78 c77 -43 259 -144 405 -224 146 -79 269 -148
274 -153 6 -6 29 1 58 17 l48 26 0 177 0 176 -37 18 c-89 42 -840 459 -931
517 -33 21 -49 26 -66 19 -54 -20 -116 23 -116 82 0 20 10 40 30 60 27 26 36
30 68 25 21 -4 45 -16 55 -29z m5566 6 c71 -59 4 -178 -82 -145 -20 8 -45 -3
-158 -68 -152 -88 -687 -388 -796 -447 l-73 -39 0 -136 c0 -134 -12 -203 -33
-196 -12 4 -12 140 -1 275 l6 72 52 30 c28 17 254 144 501 284 l450 253 0 47
c1 40 5 52 28 72 36 31 68 30 106 -2z m376 -165 c5 -14 2 -25 -6 -30 -8 -5
-117 -67 -244 -138 -126 -72 -237 -134 -246 -140 -12 -7 -18 -32 -23 -93 -5
-61 -11 -86 -24 -96 -9 -7 -116 -67 -237 -134 -121 -67 -316 -175 -434 -240
-118 -64 -217 -115 -220 -112 -17 18 86 80 821 487 l58 32 0 90 0 91 68 39
c153 89 467 265 474 265 4 0 10 -10 13 -21z m405 -79 c24 -24 34 -62 26 -95
-9 -34 -63 -67 -101 -61 -24 3 -51 -9 -135 -64 -109 -70 -873 -526 -1155 -690
-224 -130 -208 -112 -139 -156 33 -21 173 -107 313 -191 245 -147 255 -153
278 -138 12 9 148 86 301 172 260 146 731 415 1010 576 110 64 122 74 122 99
0 16 12 41 28 59 23 26 36 32 70 32 75 0 120 -51 108 -122 -11 -68 -79 -106
-148 -81 -41 15 -39 16 -311 -144 -456 -268 -994 -575 -1081 -618 -25 -12 -46
-24 -46 -27 0 -4 31 -25 69 -48 l69 -43 8 -317 c4 -175 11 -304 14 -288 6 27
8 28 15 10 5 -11 13 -23 19 -27 6 -4 154 -8 329 -8 268 0 317 2 317 14 0 27
51 76 90 86 101 27 183 -76 135 -170 -22 -42 -53 -60 -105 -60 -36 0 -53 6
-80 30 -32 27 -41 29 -112 30 l-76 0 -104 -132 c-57 -73 -130 -170 -163 -215
l-60 -82 -132 -1 -133 0 0 553 -1 552 -57 34 c-31 19 -124 77 -206 129 -81 52
-252 157 -380 234 -127 77 -237 146 -245 153 -17 16 -42 0 414 267 193 113
494 291 670 395 176 104 344 202 372 219 51 28 53 31 53 71 0 33 5 46 26 62
34 27 88 27 114 1z m-3350 -693 c91 -55 298 -178 460 -274 424 -252 593 -354
610 -369 10 -10 11 -17 4 -24 -11 -11 -139 64 -999 578 -170 102 -317 190
-327 195 -13 8 -51 -10 -180 -88 -727 -439 -1161 -695 -1178 -695 -6 0 -10 8
-8 17 4 19 129 98 753 468 220 131 443 263 495 295 l95 57 55 -30 c30 -17 129
-75 220 -130z m-173 -66 c238 -142 1468 -861 1900 -1110 l63 -36 -3 -1408 -2
-1408 -300 -173 c-165 -95 -370 -213 -455 -263 -85 -49 -252 -146 -370 -215
-118 -69 -296 -175 -395 -235 -99 -60 -259 -158 -356 -217 l-177 -107 -118 74
c-291 181 -845 507 -1499 881 -115 66 -262 150 -325 186 l-115 66 -2 1405 -2
1404 142 85 c78 46 239 140 357 208 118 68 235 136 260 151 25 16 261 156 525
311 264 156 545 322 625 370 80 48 146 88 147 89 1 0 46 -25 100 -58z m-2045
-612 c261 -162 289 -181 285 -192 -3 -10 -209 -133 -414 -248 -58 -32 -72 -45
-75 -67 -2 -21 -17 -35 -78 -69 -41 -24 -78 -43 -82 -43 -5 0 -8 48 -8 108 l0
107 43 24 c23 13 72 43 110 67 l67 44 0 75 c0 41 -2 75 -5 75 -3 0 -221 -127
-358 -209 l-37 -23 2 -1007 3 -1006 78 -55 77 -55 0 -151 0 -152 -80 -47 -80
-47 0 -402 0 -401 188 -111 c333 -197 399 -231 427 -220 8 3 15 3 15 1 0 -8
-196 -135 -209 -135 -15 0 -76 36 -412 242 l-226 139 -6 367 c-4 202 -7 433
-7 515 l0 147 144 0 c79 0 151 3 160 6 13 5 16 24 16 100 l0 94 -53 35 c-29
19 -68 39 -85 44 l-32 10 0 -40 0 -39 -70 0 c-55 0 -71 3 -79 18 -8 12 -10 13
-11 3 0 -29 -52 -71 -87 -71 -19 0 -34 5 -35 13 0 6 -4 -26 -9 -73 -4 -47 -7
-342 -8 -656 l-1 -571 153 -90 c83 -50 215 -126 292 -168 77 -43 273 -158 435
-255 162 -98 369 -220 460 -272 172 -99 669 -388 1218 -710 l323 -189 287 169
c158 93 375 220 482 282 261 152 648 380 850 503 373 227 482 291 855 508
l390 226 -1 871 0 872 132 0 133 0 62 -70 63 -70 176 0 177 0 65 -82 c35 -46
109 -141 163 -213 54 -71 110 -142 124 -157 l25 -28 353 0 353 0 0 -40 0 -40
-381 2 -382 3 -176 237 -176 238 -187 0 -186 0 -52 70 -52 70 -99 0 -99 0 0
-403 0 -404 242 -6 c376 -11 454 -9 468 7 22 27 79 40 121 27 84 -25 107 -115
45 -177 -29 -29 -41 -34 -81 -34 -40 0 -52 5 -79 33 -18 17 -35 39 -38 47 -4
13 -53 15 -341 18 l-337 3 0 -254 0 -253 43 -24 c94 -52 427 -256 956 -586
l84 -52 31 19 c37 23 87 24 126 4 37 -19 50 -43 50 -95 0 -34 -6 -48 -34 -76
-29 -29 -41 -34 -79 -34 -54 0 -102 34 -112 80 -5 22 -22 41 -63 69 -55 37
-859 531 -954 585 l-47 27 -3 -103 -3 -103 -72 -40 c-40 -22 -71 -44 -70 -50
2 -5 70 -52 151 -102 119 -74 152 -91 167 -83 10 6 38 10 62 10 39 0 49 -5 76
-35 42 -48 43 -101 2 -147 -27 -30 -35 -33 -86 -33 -52 0 -59 3 -87 34 -27 30
-30 39 -26 82 l5 48 -161 101 c-154 98 -161 101 -186 87 -330 -188 -949 -559
-952 -572 -4 -12 54 -46 342 -208 124 -69 239 -128 255 -132 59 -13 86 -28
100 -56 25 -48 19 -87 -19 -125 -29 -29 -41 -34 -81 -34 -40 0 -52 5 -81 34
-41 41 -46 89 -13 130 12 15 18 31 13 35 -17 15 -563 321 -573 321 -6 0 -79
-41 -163 -90 -83 -49 -156 -90 -160 -90 -20 0 -4 -17 35 -39 23 -13 229 -135
457 -271 228 -136 510 -302 625 -370 116 -67 248 -144 294 -172 l84 -49 31 30
c17 16 52 35 77 42 113 30 217 -69 195 -186 -10 -49 -71 -111 -119 -120 -91
-17 -178 39 -201 130 l-13 49 -189 109 c-221 128 -652 384 -1053 626 -156 94
-289 171 -294 171 -13 0 -327 -191 -327 -199 0 -3 28 -21 63 -40 34 -19 153
-88 265 -153 193 -113 203 -118 224 -103 13 8 41 15 64 15 88 0 129 -99 63
-154 -62 -52 -142 -24 -155 55 -5 30 -15 39 -77 75 -40 22 -167 96 -284 163
-192 111 -214 121 -235 110 -26 -13 -122 -70 -560 -328 l-307 -180 -248 148
c-136 81 -293 172 -348 203 -55 30 -142 81 -193 112 -51 31 -98 56 -104 56
-12 0 -154 -80 -409 -231 -156 -92 -167 -101 -173 -133 -21 -109 -186 -96
-186 14 0 53 38 90 94 90 23 0 52 -7 64 -16 22 -15 32 -10 275 134 139 82 261
154 271 159 23 13 35 4 -171 126 l-142 85 -433 -260 c-378 -226 -811 -482
-1045 -617 -67 -39 -73 -44 -73 -75 0 -37 -31 -89 -71 -119 -42 -30 -109 -34
-163 -8 -58 29 -86 73 -86 137 0 83 54 145 141 159 43 7 125 -23 135 -49 14
-36 -8 -47 782 421 312 185 606 359 654 387 48 28 87 54 85 58 -3 10 -309 191
-322 191 -6 0 -125 -65 -265 -145 -140 -80 -270 -153 -287 -162 l-33 -16 20
-33 c48 -79 5 -167 -82 -167 -84 0 -137 61 -117 135 11 39 53 75 86 75 38 0
615 323 617 345 1 13 -483 295 -506 295 -5 0 -8 -29 -8 -64 0 -63 0 -63 -50
-110 -27 -25 -56 -46 -65 -46 -8 0 -15 -6 -16 -12 0 -9 -2 -9 -5 -2 -3 7 20
36 51 64 l55 53 0 73 0 73 -122 74 c-68 41 -166 100 -219 131 l-96 55 -104
-67 c-57 -38 -125 -81 -151 -97 -46 -29 -47 -30 -41 -71 17 -123 -143 -187
-207 -82 -24 40 -25 81 -3 119 26 44 73 59 143 45 32 -6 47 1 178 85 126 81
141 93 125 103 -10 7 -46 29 -80 50 l-62 37 -3 100 -3 100 -180 -109 c-382
-231 -758 -465 -822 -511 -26 -19 -43 -39 -43 -51 0 -11 -13 -34 -28 -51 -23
-25 -38 -33 -78 -36 -43 -5 -54 -2 -81 21 -46 38 -59 85 -37 131 28 59 113 86
160 50 10 -8 25 -15 32 -15 7 0 155 89 330 198 299 187 615 380 710 432 l42
24 0 253 0 253 -337 0 -338 -1 -20 -31 c-43 -67 -110 -90 -170 -58 -66 36 -73
143 -11 184 43 28 79 28 131 1 l50 -26 348 7 347 7 0 111 c0 61 -3 243 -7 404
l-6 292 -87 0 -86 0 -53 -70 -54 -70 -96 0 c-179 -1 -295 -11 -308 -29 -6 -9
-83 -113 -170 -231 l-158 -215 -385 0 -385 0 -3 38 -3 37 364 0 c334 0 365 1
379 18 19 21 291 390 331 449 35 51 70 62 108 34 25 -19 43 -21 152 -21 l124
0 59 70 59 70 88 0 c65 0 92 4 103 15 19 19 35 19 59 1 15 -10 18 -26 18 -77
-1 -58 0 -60 6 -19 6 44 7 44 20 21 7 -13 8 -21 2 -17 -6 4 -11 3 -11 -2 0 -5
22 -28 50 -51 29 -25 53 -55 59 -74 6 -20 10 346 10 1020 0 579 3 1058 6 1063
11 18 64 40 92 38 28 -2 146 63 403 221 63 39 116 71 117 71 1 0 76 -46 165
-101z m4424 -117 c94 -53 118 -62 160 -62 67 0 144 -45 185 -110 17 -26 33
-213 17 -204 -4 3 -8 -7 -8 -23 0 -15 -4 -44 -10 -63 -12 -44 -70 -116 -80
-100 -9 15 -20 -195 -20 -397 l0 -163 -109 0 -110 0 -45 -42 -46 -41 0 -92 0
-92 38 -15 c20 -9 61 -20 90 -25 l52 -10 0 54 0 53 65 0 65 0 -2 -1147 -3
-1147 -300 -181 c-165 -99 -311 -188 -325 -197 -24 -16 -27 -15 -119 45 -73
47 -90 63 -75 67 33 9 192 99 399 226 l200 122 3 839 c2 461 0 910 -3 998 l-7
160 -80 58 -80 59 4 144 c3 140 4 144 28 161 14 10 46 37 71 60 41 38 52 43
93 43 l46 0 0 283 0 283 -42 30 -43 30 2 82 1 82 -126 78 c-167 103 -251 152
-263 152 -5 0 -9 -33 -9 -74 l0 -75 110 -68 110 -68 0 -107 c0 -70 -4 -108
-11 -108 -6 0 -41 18 -79 41 -59 35 -69 45 -72 71 -3 29 -17 39 -196 144 -283
165 -296 174 -279 191 7 7 109 72 227 142 l213 129 126 -77 c69 -43 176 -105
237 -139z m-267 -1690 c0 -554 -4 -998 -9 -987 -6 16 -9 12 -11 -20 -5 -49
-19 1235 -19 1681 0 313 4 355 32 338 4 -3 8 -458 7 -1012z m-4384 825 c-1
-836 -9 -1545 -18 -1487 -5 36 -11 426 -13 868 -4 765 -4 803 13 800 16 -3 18
-19 18 -181z m-1530 -209 c14 -6 25 -15 25 -20 0 -4 60 -8 133 -8 l133 0 97
-120 97 -120 172 -2 173 -3 0 -240 0 -240 -553 4 c-549 4 -553 4 -575 -17 -36
-33 -74 -44 -117 -32 -67 18 -101 81 -80 145 32 96 181 99 220 5 l14 -33 460
6 c254 4 491 7 529 7 l67 0 0 160 0 160 -175 0 -174 0 -97 120 -97 120 -112 0
c-99 0 -114 -2 -130 -20 -37 -41 -116 -10 -131 52 -5 22 0 34 24 58 33 32 56
37 97 18z m7490 -13 c35 -34 34 -86 -1 -114 -34 -27 -76 -27 -99 -1 -16 18
-31 20 -135 20 l-118 0 -96 -120 -97 -120 -117 0 -117 0 -27 -113 c-15 -61
-25 -130 -23 -152 1 -22 -1 -43 -7 -46 -16 -10 292 -19 664 -19 l358 0 14 34
c17 42 60 66 117 66 33 0 47 -6 75 -34 29 -29 34 -41 34 -79 0 -85 -87 -138
-165 -101 -20 9 -39 24 -42 32 -5 13 -81 14 -572 11 l-566 -4 -3 78 c-2 43 -7
75 -11 72 -13 -7 -61 80 -77 139 -26 97 -11 176 40 210 32 21 119 21 150 1 18
-12 48 -15 132 -13 l109 3 94 118 94 117 134 0 c120 0 136 2 155 20 30 27 73
25 103 -5z m-5322 -2571 c117 -60 716 -418 711 -425 -3 -5 1 -6 8 -4 8 3 22
-2 33 -10 20 -16 19 -16 -2 -6 -14 7 -23 7 -25 1 -2 -5 -35 9 -75 32 -40 23
-69 46 -66 51 3 6 1 7 -5 3 -7 -4 -112 50 -234 120 -320 181 -388 224 -388
240 0 18 4 18 43 -2z m3106 -10 c-15 -18 -230 -147 -519 -311 -107 -61 -276
-156 -374 -212 -123 -70 -182 -99 -189 -92 -6 6 -9 12 -6 15 2 2 227 133 499
291 272 158 509 296 525 305 17 10 41 19 54 19 20 1 22 -1 10 -15z m-3005
-366 c143 -83 1262 -726 1369 -787 50 -28 62 -32 83 -22 37 17 1126 640 1342
768 106 62 198 116 206 119 12 5 63 -26 124 -74 l24 -18 -169 -104 c-92 -57
-247 -149 -343 -205 -96 -55 -233 -135 -305 -177 -117 -69 -502 -291 -742
-429 -51 -29 -94 -58 -97 -65 -3 -7 3 -31 12 -53 16 -37 20 -41 55 -41 24 0
36 -4 35 -12 -4 -16 -138 -108 -158 -108 -8 0 -58 25 -110 56 -97 58 -141 89
-82 60 18 -9 32 -12 32 -6 0 5 13 10 29 10 23 0 32 8 52 45 21 40 22 47 9 55
-8 6 -69 43 -135 82 -116 69 -187 110 -640 373 -681 394 -879 515 -868 526 17
17 118 87 127 88 5 1 73 -36 150 -81z m681 -98 c3 0 3 5 -1 12 -5 7 -3 8 5 4
7 -5 10 -10 7 -14 -3 -3 2 -11 12 -19 9 -8 -2 -5 -25 7 -24 11 -43 23 -43 26
0 2 9 0 19 -6 11 -5 22 -10 26 -10z m556 -400 c105 -60 193 -110 195 -110 2 0
89 50 195 110 105 61 195 110 200 110 37 0 -10 -34 -185 -134 -112 -64 -207
-116 -210 -116 -4 0 -77 41 -164 91 -86 50 -176 102 -200 116 -23 13 -40 28
-37 34 4 5 8 9 10 9 3 0 91 -49 196 -110z m-2780 -236 c26 -24 26 -26 12 -67
-8 -23 -21 -48 -30 -54 -27 -21 -69 -15 -102 13 -25 20 -31 34 -31 63 0 78 89
105 151 45z m6072 16 c35 -28 41 -53 22 -93 -17 -36 -50 -57 -90 -57 -27 0
-65 43 -65 74 0 15 -13 29 -45 46 -24 13 -42 26 -40 28 2 3 16 -3 30 -12 29
-19 56 -14 94 15 31 25 62 24 94 -1z m-6744 -426 c59 -49 30 -134 -46 -134
-24 0 -44 10 -73 36 -22 20 -40 41 -40 46 0 6 15 25 34 44 42 42 82 45 125 8z
m7402 13 c8 -7 24 -25 34 -40 l18 -28 -34 -35 c-48 -51 -73 -58 -118 -37 -27
14 -37 26 -42 52 -6 30 -3 39 26 68 35 35 85 44 116 20z"/>
<path d="M4675 8189 c-394 -238 -405 -246 -375 -264 12 -8 10 -56 -4 -74 -14
-19 -42 -34 322 180 172 101 325 195 340 209 25 23 27 30 22 77 l-5 53 -300
-181z"/>
<path d="M1419 6394 c-18 -22 1 -49 36 -49 35 0 54 27 36 49 -8 9 -24 16 -36
16 -12 0 -28 -7 -36 -16z"/>
<path d="M1857 6262 c21 -27 83 -103 138 -169 l100 -122 98 0 97 -1 0 170 0
170 -236 0 -236 0 39 -48z"/>
<path d="M8895 6407 c-13 -10 -16 -21 -12 -39 9 -33 29 -41 56 -22 25 18 27
37 5 58 -19 19 -25 20 -49 3z"/>
<path d="M8238 6313 l-128 -4 0 -169 0 -170 93 0 93 0 132 169 c73 93 132 172
132 175 0 6 -35 6 -322 -1z m-85 -20 c-7 -2 -19 -2 -25 0 -7 3 -2 5 12 5 14 0
19 -2 13 -5z"/>
<path d="M4940 7519 c-701 -416 -914 -541 -1536 -900 l-112 -64 -7 -240 c-3
-132 -5 -730 -3 -1330 l3 -1089 175 -104 c96 -58 249 -147 340 -200 343 -197
914 -530 1157 -673 l252 -149 113 68 c342 207 1062 630 1770 1041 l28 16 0
1331 0 1332 -172 100 c-95 55 -405 235 -688 399 -283 165 -635 370 -782 456
-147 86 -271 157 -275 157 -4 0 -123 -68 -263 -151z m507 -504 c268 -514 967
-1902 1062 -2108 35 -76 61 -140 59 -142 -5 -6 -307 167 -308 176 0 3 9 10 20
15 19 8 -3 54 -301 649 -177 352 -424 844 -550 1093 l-229 453 -66 -133 c-37
-73 -124 -245 -194 -383 -249 -488 -830 -1653 -830 -1663 0 -6 8 -16 18 -22 9
-6 12 -13 7 -16 -6 -2 -77 -43 -158 -90 -82 -48 -150 -85 -152 -83 -3 4 60
133 535 1094 93 187 243 486 335 665 424 828 491 953 507 948 6 -2 116 -206
245 -453z m-877 -137 c-60 -116 -60 -116 -127 -154 -38 -20 -206 -120 -375
-221 l-308 -183 -2 -352 -3 -352 -65 -38 c-36 -21 -68 -38 -72 -38 -5 0 -8
197 -8 438 l0 437 193 114 c645 383 821 484 824 473 2 -4 -24 -59 -57 -124z
m1258 105 c64 -37 148 -85 585 -343 l377 -222 0 -895 c0 -492 -4 -893 -8 -891
-5 2 -38 21 -75 43 l-67 39 -1 496 c-1 272 -4 636 -8 809 l-6 314 -162 96
c-89 53 -255 150 -368 216 l-207 120 -59 117 c-32 65 -59 120 -59 123 0 9 11
5 58 -22z m-513 -699 c246 -488 588 -1159 714 -1398 212 -401 353 -676 347
-676 -5 0 -51 27 -729 437 l-448 271 -192 -117 c-543 -331 -979 -593 -982
-589 -4 4 196 395 531 1036 107 205 294 569 416 808 126 249 225 433 232 431
6 -2 56 -93 111 -203z m935 44 c80 -47 167 -96 193 -109 l48 -23 -3 -50 -3
-50 -110 -63 c-60 -34 -113 -62 -117 -63 -4 0 -9 59 -10 131 l-3 132 -92 55
-93 56 0 49 c0 49 0 49 23 35 12 -8 87 -53 167 -100z m-1912 56 l-3 -47 -87
-51 -87 -51 -1 -127 c0 -71 -3 -128 -7 -128 -5 0 -57 26 -118 58 l-110 57 -3
50 -3 50 68 37 c37 21 127 73 198 117 72 44 136 80 143 80 9 1 12 -12 10 -45z
m-375 -420 c18 -9 69 -37 115 -62 l82 -46 0 -48 c0 -26 -3 -48 -7 -47 -5 0
-60 31 -123 67 l-115 67 -3 43 c-4 47 3 50 51 26z m2527 -28 l0 -45 -116 -65
c-64 -36 -119 -66 -121 -66 -2 0 -3 21 -1 48 l3 47 110 62 c61 35 113 63 118
63 4 0 7 -20 7 -44z m-2734 -571 c-4 -11 -126 -85 -140 -85 -3 0 -6 19 -6 43
1 42 1 42 73 83 l72 42 3 -35 c2 -19 1 -41 -2 -48z m4 -420 l0 -225 -27 -16
c-16 -9 -47 -30 -71 -45 -23 -16 -45 -29 -47 -29 -3 0 -5 105 -5 233 l0 232
68 37 c37 20 70 37 75 38 4 0 7 -101 7 -225z m1488 -349 c20 -13 156 -94 302
-179 335 -194 1119 -656 1144 -673 17 -11 12 -16 -51 -47 l-69 -35 -204 117
c-113 65 -360 207 -550 317 -190 110 -406 235 -482 278 l-136 77 -189 -109
c-103 -60 -339 -196 -523 -302 -184 -106 -406 -234 -494 -285 l-158 -92 -74
31 c-56 24 -70 34 -61 43 7 6 271 163 587 348 316 186 649 382 740 436 91 54
168 98 173 99 4 0 24 -11 45 -24z m88 -557 c66 -34 125 -66 132 -72 9 -7 12
-55 10 -200 l-3 -190 -130 -78 c-71 -43 -136 -79 -143 -79 -6 0 -73 36 -147
80 l-135 81 2 191 3 191 130 68 c72 38 137 69 146 69 9 0 70 -28 135 -61z
m-601 -169 c16 -16 27 -31 24 -33 -12 -11 -303 -189 -315 -194 -8 -3 -14 -9
-14 -13 0 -5 74 -52 165 -105 91 -54 165 -99 165 -101 0 -1 -18 -17 -41 -34
l-40 -32 -222 127 c-122 70 -225 130 -229 134 -7 6 455 279 473 281 3 0 18
-13 34 -30z m1216 -105 c128 -75 234 -137 236 -138 1 -2 -23 -18 -55 -36 -105
-62 -331 -190 -368 -210 l-36 -20 -39 26 c-22 14 -39 29 -39 33 0 5 74 52 165
106 91 54 165 101 165 104 0 4 -74 51 -165 105 -91 53 -165 101 -165 105 0 7
57 60 64 60 2 0 108 -61 237 -135z m-713 -608 l32 -33 -30 -22 c-37 -28 -58
-27 -93 2 l-29 23 38 32 c21 17 41 31 44 31 3 0 20 -15 38 -33z"/>
<path d="M5017 5436 c-98 -190 -189 -361 -203 -381 -34 -51 -30 -55 14 -13 32
32 352 248 366 248 9 0 330 -212 376 -249 39 -31 43 -32 29 -11 -19 29 -160
296 -300 568 -52 100 -96 182 -99 182 -3 0 -85 -155 -183 -344z"/>
<path d="M5170 3750 c0 -77 3 -140 8 -140 4 0 17 3 30 6 21 6 22 10 22 140 l0
134 -30 0 -30 0 0 -140z"/>
<path d="M1459 4134 c-16 -20 -1 -48 29 -52 29 -5 47 31 26 52 -20 20 -38 20
-55 0z"/>
<path d="M8873 4144 c-7 -3 -13 -16 -13 -30 0 -31 44 -44 68 -20 29 29 -14 67
-55 50z"/>
<path d="M2052 2968 c-40 -40 14 -96 63 -64 28 18 30 28 15 57 -12 22 -59 26
-78 7z"/>
<path d="M8293 2973 c-21 -8 -16 -61 6 -73 24 -12 66 1 75 25 8 22 8 21 -10
39 -15 16 -46 20 -71 9z"/>
<path d="M1096 2894 c-9 -8 -16 -19 -16 -24 0 -13 30 -40 44 -40 35 0 48 53
17 70 -25 13 -27 13 -45 -6z"/>
<path d="M9258 2899 c-37 -21 -10 -77 31 -64 27 8 34 35 15 56 -19 22 -23 22
-46 8z"/>
<path d="M7498 2212 c-22 -4 -35 -49 -21 -71 16 -25 59 -26 76 0 27 38 -7 82
-55 71z"/>
<path d="M2840 2189 c-19 -34 2 -69 40 -69 36 0 61 40 43 68 -16 27 -69 28
-83 1z"/>
<path d="M2172 1473 c-54 -46 -24 -123 48 -123 43 0 67 18 76 57 15 60 -74
108 -124 66z"/>
<path d="M8120 1470 c-45 -45 -11 -120 55 -120 43 0 75 29 75 70 0 61 -86 94
-130 50z"/>
<path d="M1080 5321 c-12 -23 12 -54 38 -49 21 4 36 32 29 52 -9 22 -54 20
-67 -3z"/>
<path d="M9262 5328 c-19 -19 -14 -37 13 -50 30 -14 57 5 53 36 -4 25 -46 34
-66 14z"/>
<path d="M4315 3010 c3 -5 11 -10 16 -10 6 0 7 5 4 10 -3 6 -11 10 -16 10 -6
0 -7 -4 -4 -10z"/>
</g>
</svg>
